<svg width="1807" height="590" viewBox="0 0 1807 590" fill="none" xmlns="http://www.w3.org/2000/svg">
<path d="M151.011 341.55V109.5H240.261V308.23C240.856 404.025 255.731 451.625 305.116 451.625C352.716 451.625 366.401 409.38 363.426 308.23V109.5H452.676V341.55C452.676 474.235 402.696 539.685 308.091 539.685C212.296 539.685 151.011 474.235 151.011 341.55ZM506.175 425.445V109.5H656.71C875.67 109.5 829.855 314.775 754.885 347.5C735.25 356.425 717.4 358.805 700.74 358.805C672.775 358.805 647.785 351.07 621.01 351.07C612.68 351.07 604.35 351.665 595.425 353.45V423.065C595.425 490.3 610.3 524.215 626.96 531.95C603.16 531.95 506.175 535.52 506.175 425.445ZM595.425 192.205V279.67C603.16 278.48 610.3 277.885 616.845 277.885C640.645 277.885 658.495 284.43 676.345 284.43C685.27 284.43 694.195 282.645 703.715 278.48C736.44 263.605 744.77 192.205 668.015 192.205H595.425ZM846.975 317.75C846.975 183.875 927.3 95.815 1033.81 95.815C1139.72 95.815 1220.04 183.875 1220.04 317.75C1220.04 451.03 1139.72 539.685 1033.81 539.685C927.3 539.685 846.975 451.03 846.975 317.75ZM936.225 317.155C936.225 401.05 981.445 450.435 1033.81 450.435C1074.27 450.435 1130.79 411.76 1130.79 317.155C1130.79 235.64 1085.57 185.065 1033.81 185.065C981.445 185.065 936.225 236.83 936.225 317.155ZM1267.36 425.445V109.5H1356.61V423.065C1356.61 490.3 1371.48 524.215 1388.14 531.95C1364.34 531.95 1267.36 535.52 1267.36 425.445ZM1423.66 109.5H1512.91V458.17H1567.06C1634.29 458.17 1668.21 437.345 1675.94 414.735C1675.94 438.535 1679.51 535.52 1569.44 535.52H1423.66V109.5Z" fill="black"/>
<path d="M1020.33 2.87086C1016.6 8.73753 1015.27 11.8042 1011.27 23.5375C1005 41.8042 1001.67 53.6709 1002.33 54.3375C1002.73 54.7375 1003.27 54.7375 1003.53 54.4709C1003.67 54.2042 1006.47 46.2042 1009.53 36.7375L1015.27 19.4042L1019.67 12.4709C1022.07 8.73753 1024.73 5.13753 1025.53 4.73753L1026.87 3.8042L1029.4 8.87086C1030.87 11.6709 1033.4 17.9375 1035 22.8709L1038.07 31.9375L1024.73 58.8709C1011.8 85.0042 1008.73 91.8042 1001 113.271C999 118.738 992.2 134.071 985.933 147.271L974.466 171.271L973.933 179.404L973.4 187.538L977.666 192.338C980.066 195.138 983.133 197.271 984.466 197.271H987V194.204C987 192.604 986.066 188.338 985 184.871L983 178.338L986.333 170.338C988.066 165.938 992.066 158.204 995 153.004C997.933 147.938 1000.33 143.404 1000.33 143.004C1000.33 142.604 1001.4 140.738 1002.73 138.871C1005.53 134.871 1007.93 129.004 1014.33 110.871C1016.73 104.204 1021.67 93.6709 1025.13 87.5375C1028.6 81.5375 1031.8 76.3375 1032.2 75.9375C1034.33 74.2042 1036.87 68.0709 1037.53 63.2709L1038.33 57.9375L1041.67 57.5375L1045.13 57.1375L1046.73 53.4042L1048.33 49.8042L1042.87 35.8042C1034.07 13.0042 1029.13 1.93753 1027.67 1.0042C1025.13 -0.862473 1022.33 -0.0624695 1020.33 2.87086Z" fill="#DAB12D"/>
<path d="M1000.33 58.7375C998.6 61.9375 999.8 64.2041 1001.67 61.2708C1003 59.1375 1003.4 55.9375 1002.33 55.9375C1002.07 55.9375 1001.13 57.1375 1000.33 58.7375Z" fill="#DAB12D"/>
<path d="M997.133 68.6041C994.6 74.4708 994.6 74.6041 996.2 74.6041C997.666 74.6041 1001 65.4041 999.933 64.3375C999.533 63.9375 998.2 65.9375 997.133 68.6041Z" fill="#DAB12D"/>
<path d="M1052.33 69.9375V75.8042L1055.93 82.2042C1060.87 91.1375 1075.13 114.738 1076.87 117.004C1077.67 118.071 1080.73 121.538 1083.67 124.738C1091.27 132.871 1092.33 134.338 1092.33 135.938C1092.33 136.604 1093.27 137.271 1094.33 137.271C1095.4 137.271 1096.33 136.338 1096.33 135.271C1096.33 134.204 1095.8 133.271 1095 133.271C1094.33 133.271 1093.67 132.604 1093.67 131.671C1093.67 129.938 1084.2 113.404 1075.67 100.471C1072.47 95.6709 1066.6 85.4042 1062.73 77.8042C1058.87 70.2042 1054.87 63.9375 1054.07 63.9375H1052.33V69.9375Z" fill="#DAB12D"/>
<path d="M993.533 79.4042C992.733 81.5375 990.733 86.8708 989 91.2708C987.267 95.6708 985.533 100.337 985 101.537L984.067 103.938H985.4C987 103.938 997 77.5375 995.933 76.3375C995.4 75.9375 994.467 77.2708 993.533 79.4042Z" fill="#DAB12D"/>
<path d="M1133.67 202.604C1133.67 203.404 1134.87 206.338 1136.33 209.271C1137.8 212.204 1139 215.938 1139 217.671C1139 221.404 1141.8 229.938 1145.93 238.604C1155.4 259.004 1162.6 279.271 1167.27 299.938L1170.2 312.604L1170.33 335.271V357.938L1166.73 371.004C1164.6 378.338 1163 384.471 1163 384.738C1163 385.004 1163.8 385.271 1164.73 385.271C1166.47 385.271 1171 376.071 1171 372.738C1171 371.671 1171.53 370.471 1172.2 370.071C1172.87 369.538 1173.8 366.738 1174.33 363.538C1174.87 360.471 1175.93 357.138 1176.6 356.204L1177.93 354.604L1178.6 334.204L1179.27 313.938L1177.8 304.604C1175 286.204 1173.27 277.271 1172.2 277.271C1171.8 277.271 1170.87 274.604 1170.47 271.271C1169.93 268.071 1169 265.004 1168.2 264.604C1167.53 264.071 1167 262.871 1167 261.804C1167 258.471 1157.53 238.338 1146.33 217.938C1143.53 212.738 1140.33 207.004 1139.4 204.871C1137.53 201.404 1133.67 199.804 1133.67 202.604Z" fill="#DAB12D"/>
<path d="M992.333 211.271C991.4 212.471 985.533 216.738 979.533 220.871C957.8 235.404 945.267 249.404 940.733 264.338L938.467 271.271V282.604V293.938L944.867 312.338C948.333 322.471 951.267 331.671 951.267 333.004C951.4 334.204 951.133 336.871 950.6 338.738L949.667 342.204L946.333 343.671C944.6 344.471 941.933 344.871 940.733 344.338C939.4 343.938 934.867 340.871 930.6 337.671L922.733 331.938H917.667H912.6L909.533 334.471L906.333 337.004V357.671V378.338L904.067 380.871C901.533 383.671 900.867 388.604 902.867 389.938C903.533 390.338 904.467 392.471 905 394.738C905.533 396.871 907 399.404 908.467 400.338C909.8 401.138 911 402.604 911 403.538C911 404.471 911.933 405.271 913 405.271C914.067 405.271 915 404.338 915 403.271C915 402.204 914.467 401.271 913.8 401.271C913.133 401.271 912.2 399.804 911.8 397.938L911 394.604L914.6 389.004L918.333 383.404L918.467 366.871L918.733 350.338L920.2 348.871L921.667 347.404L925.267 350.338C927.4 352.071 931.4 354.471 934.333 355.938L939.667 358.604H945.933H952.2L956.867 354.471L961.667 350.338L963 345.538C965.267 337.404 964.467 330.604 960.2 318.604C957.933 312.338 954.867 303.671 953.4 299.271L950.6 291.271V281.938L950.467 272.604L953.8 265.271L957 257.938L957.8 276.604L958.6 295.271L960.333 300.604C961.267 303.538 963.667 308.071 965.667 310.604C967.667 313.138 969.8 316.604 970.2 318.338C970.733 319.938 972.6 322.738 974.333 324.338C977 326.871 981.133 336.338 987.267 353.938L989.133 359.271L991.933 359.671C993.533 359.938 996.2 359.271 997.933 358.071C999.667 357.004 1003.53 355.538 1006.47 354.738L1012.07 353.271L1013.4 344.871C1014.2 340.338 1015.27 333.804 1015.67 330.338L1016.47 323.938L1018.73 322.738C1019.93 322.071 1027.27 321.404 1035 321.138L1049 320.604L1050.47 325.271C1051.27 327.804 1052.87 330.071 1054.07 330.338L1056.07 330.738L1056.73 328.338C1057.13 327.004 1057.93 323.271 1058.47 319.938C1059.67 312.071 1063.93 303.404 1071.27 293.804C1078.47 284.471 1083 275.804 1083 271.671V268.604L1072.6 262.871C1057.67 254.604 1050.87 250.738 1045.67 247.271C1043.13 245.671 1037.4 242.071 1033 239.271C1028.6 236.471 1022.33 232.204 1019.13 229.538L1013.4 224.871H1005.53L997.8 225.004L999.667 223.004C1000.73 221.938 1001.67 219.404 1001.67 217.404V213.671L999.267 211.538C996.2 208.738 994.467 208.738 992.333 211.271Z" fill="#DAB12D"/>
<path d="M1112.33 266.738C1109.8 267.404 1105.4 267.538 1102.73 267.138L1097.67 266.338V269.938C1097.67 271.938 1099.67 278.738 1102.2 285.138C1108.07 299.804 1111.67 318.071 1113.67 342.604C1114.6 353.271 1115.53 362.204 1115.8 362.471C1116.07 362.738 1117 362.604 1118.07 362.204C1120.07 361.404 1124.2 349.271 1127.93 333.271L1130.33 323.271L1130.2 305.271L1130.07 287.271L1127.67 277.938C1126.47 272.738 1124.73 267.804 1124.07 266.871C1122.47 265.004 1119.13 265.004 1112.33 266.738Z" fill="#DAB12D"/>
<path d="M1032.87 353.804C1032.47 354.871 1032.33 356.871 1032.6 358.204L1033 360.604H1035.67H1038.33L1038.73 356.204L1039.13 351.938H1036.33C1034.87 351.938 1033.27 352.738 1032.87 353.804Z" fill="#DAB12D"/>
<path d="M1096.47 387.938L1090.6 390.204L1086.07 388.871L1081.67 387.538L1078.33 389.004C1076.47 389.938 1074.33 392.071 1073.4 393.804L1071.93 397.138L1077.93 406.871C1083.4 415.804 1084.73 418.604 1088.2 426.871C1090.47 432.338 1093.4 447.938 1092.73 450.604L1092.07 453.271H1093.8C1094.87 453.271 1097.13 452.471 1099 451.538C1113.8 443.538 1119.13 440.204 1126.87 434.071C1136.6 426.204 1149.67 412.738 1149.67 410.604C1149.67 409.938 1150.33 409.271 1151 409.271C1151.8 409.271 1152.33 408.338 1152.33 407.271C1152.33 406.204 1151.4 405.271 1150.33 405.271C1149.27 405.271 1148.33 405.804 1148.33 406.604C1148.33 407.271 1147.27 407.938 1145.93 407.938C1143.27 407.938 1137.67 402.738 1137.67 400.338C1137.67 398.071 1131 393.804 1125.93 392.871C1123.4 392.338 1119.67 390.471 1117.4 388.604L1113.4 385.271L1107.93 385.404C1104.87 385.538 1099.67 386.604 1096.47 387.938Z" fill="#DAB12D"/>
<path d="M1160.33 388.471C1160.33 389.671 1161.27 390.604 1162.47 390.604C1164.73 390.604 1164.33 387.671 1161.93 386.871C1161 386.604 1160.33 387.271 1160.33 388.471Z" fill="#DAB12D"/>
<path d="M1156.33 395.004C1156.33 396.071 1157.27 396.871 1158.33 396.871C1159.4 396.871 1160.33 396.071 1160.33 395.004C1160.33 394.071 1159.4 393.271 1158.33 393.271C1157.27 393.271 1156.33 394.071 1156.33 395.004Z" fill="#DAB12D"/>
<path d="M1152.73 400.604C1152.33 401.804 1152.33 403.004 1152.73 403.538C1154.07 404.871 1157.67 402.738 1157.67 400.604C1157.67 397.938 1153.8 397.938 1152.73 400.604Z" fill="#DAB12D"/>
<path d="M913.667 408.471C913.667 409.538 916.333 413.138 919.667 416.471C923 419.938 925.667 423.138 925.667 423.804C925.667 425.004 931.4 430.604 932.6 430.604C933.133 430.604 935.533 432.604 938.2 434.871C944.867 441.138 945.8 441.938 952.333 445.404C955.533 447.138 959 449.404 960.067 450.204C961 451.138 962.733 451.938 963.8 451.938C966.733 451.938 965.933 448.204 962.733 447.138C961.133 446.738 958.733 445.271 957.4 443.938C956.067 442.738 953.267 440.871 951.267 439.804C946.733 437.404 944.867 436.071 941.4 432.204C939.8 430.604 938.067 429.271 937.533 429.271C936.467 429.271 927 420.071 927 419.004C927 418.604 925.533 416.871 923.8 415.271C922.067 413.671 919.933 411.004 919.133 409.538C917.4 406.204 913.667 405.538 913.667 408.471Z" fill="#DAB12D"/>
<path d="M1045.53 51.9373L1043.67 56.0707L1040.73 55.5373L1037.8 55.004L1037.13 56.8707C1036.6 57.9373 1036.33 60.3373 1036.33 62.204C1036.33 65.1373 1032.87 72.8707 1030.87 74.604C1028.6 76.4707 1016.2 100.337 1013.8 107.537C1012.2 112.071 1009.8 118.871 1008.33 122.604C1006.87 126.337 1005.67 129.671 1005.67 129.937C1005.67 130.337 1007.13 130.604 1008.87 130.604H1012.07L1021.93 121.137L1031.67 111.671L1039.27 107.537L1047 103.537L1059 105.937C1065.53 107.404 1071.27 108.071 1071.67 107.671C1072.07 107.271 1069.53 101.937 1065.93 95.804C1062.33 89.6707 1058.07 82.3373 1056.47 79.5373L1053.67 74.4707V69.5373V64.604L1056.33 67.9373L1059 71.2707L1053.8 60.0707C1050.87 53.9373 1048.2 48.604 1047.8 48.3373C1047.53 48.0707 1046.47 49.6707 1045.53 51.9373Z" fill="#E9D222"/>
<path d="M1059 73.1373C1059 73.9373 1059.53 74.8707 1060.33 75.2707L1061.67 76.0707L1060.87 74.0707C1059.93 71.6707 1059 71.2707 1059 73.1373Z" fill="#E9D222"/>
<path d="M1063.67 81.2707C1064.07 81.9373 1064.73 82.604 1065.13 82.604C1065.53 82.604 1065.4 81.9373 1065 81.2707C1064.6 80.4707 1063.93 79.9373 1063.53 79.9373C1063.13 79.9373 1063.27 80.4707 1063.67 81.2707Z" fill="#E9D222"/>
<path d="M993.666 224.737C986.866 228.604 985 230.204 989 228.737C993 227.137 995.133 226.871 1000.73 226.737L1005.67 226.604V224.737C1005.67 223.137 1003 221.271 1000.6 221.271C1000.07 221.271 997 222.871 993.666 224.737Z" fill="#E9D222"/>
<path d="M1146.2 246.204C1144.47 253.137 1139.27 262.071 1133.93 266.871C1131.13 269.404 1127.93 271.804 1127 272.204L1125.27 272.737L1127.13 282.071L1128.87 291.271V306.604V321.937L1126.47 332.604C1123.53 345.271 1119.27 358.737 1117.53 360.604L1116.33 361.804V357.937C1116.2 347.937 1112.2 314.204 1109.8 303.937C1108.47 297.671 1105.53 288.471 1103.4 283.271L1099.4 273.937L1094.87 273.137C1092.33 272.737 1089 271.671 1087.4 270.871C1083.53 268.737 1081.67 268.871 1081.67 271.271C1081.67 274.604 1076.47 283.937 1069.93 292.471C1062.33 302.337 1058.2 311.004 1057 319.404C1056.47 323.004 1055.53 326.871 1054.87 327.937L1053.8 329.937L1053 327.271C1052.47 325.804 1051.53 323.271 1050.87 321.537L1049.67 318.337L1034.6 319.271C1026.47 319.804 1018.6 320.737 1017.4 321.404L1015.13 322.604L1014.33 329.004C1013.93 332.471 1013.27 336.871 1013 338.737L1012.47 342.204L1020.07 343.937C1024.2 344.871 1030.6 347.004 1034.33 348.737C1043.13 353.004 1061.67 367.937 1072.47 379.671L1081 388.871L1085.8 390.471L1090.73 392.071L1097.8 389.271C1101.8 387.804 1106.6 386.604 1108.6 386.604H1112.07L1116.07 389.937C1118.33 391.804 1122.07 393.671 1124.6 394.204C1129.8 395.137 1136.33 399.404 1136.33 401.804C1136.33 404.204 1142.07 409.271 1144.73 409.271C1145.93 409.271 1147.27 409.937 1147.67 410.604C1148.87 412.604 1151.27 410.737 1150.47 408.471L1149.8 406.737L1151.93 407.537L1154.07 408.337L1153.27 406.071L1152.33 403.804L1153.93 404.737L1155.4 405.671L1154.6 403.537L1153.8 401.404L1155.27 400.471L1156.73 399.537L1155.67 401.404L1154.47 403.271L1156.73 401.404L1159 399.537L1158.33 397.137L1157.53 394.604L1159.8 395.537L1162.07 396.337L1161.4 393.537L1160.6 390.604L1162.07 391.537L1163.4 392.337L1162.6 390.204L1161.8 388.071L1163.27 387.137L1164.73 386.204L1163.67 387.937L1162.6 389.671L1164.2 388.604L1165.93 387.671L1165.27 385.137L1164.6 382.604L1165.8 383.404C1166.47 383.804 1167 383.271 1167.13 382.337C1167.53 375.671 1168.2 371.271 1170.33 361.404L1172.73 350.071L1171.93 330.071L1171.27 309.937L1168.47 297.937C1163.4 275.937 1151.93 244.071 1148.6 242.871L1147.13 242.471L1146.2 246.204Z" fill="#E9D222"/>
<path d="M954.066 260.871L949 271.137L949.266 282.471L949.4 293.937L954.333 307.271C957.133 314.604 960.2 323.671 961.266 327.404L963.4 334.337L962.333 340.737L961.4 347.137L956.333 352.204L951.266 357.271H946.466C940.466 357.271 933.4 354.471 928.066 349.937C923.8 346.337 919.8 345.671 918.2 348.204C917.533 349.137 917.133 357.137 917.133 366.071L917 382.337L912.866 388.204C910.6 391.271 908.066 393.804 907.133 393.671C906.333 393.404 905.666 394.204 905.666 395.271V397.137L907.666 396.471L909.666 395.671L909.8 397.404C909.933 398.471 909.8 400.471 909.666 401.804L909.4 404.337L911.4 403.537L913.4 402.737L912.733 405.137L912.2 407.404L914.466 409.404L916.866 411.271L915.666 409.404L914.6 407.537L916.066 408.471L917.533 409.404L916.733 411.537L915.933 413.671L917.4 412.737L919 411.804L918.2 413.937L917.266 416.204L919.8 415.671L922.333 415.271L921.933 417.804L921.4 420.337L923.533 419.537L925.533 418.737L924.866 420.337C924.066 422.471 934.333 432.471 936.066 431.404C936.733 431.004 938.2 431.671 939.133 433.004L941 435.271L938.333 433.271L935.666 431.271L938.066 434.071C939.266 435.537 941.266 436.871 942.333 436.871C944.466 436.871 945.133 433.937 943.133 432.737C942.466 432.337 941.533 428.337 941 424.071L940.066 416.071L942.2 408.871C943.4 404.871 946.733 397.937 949.666 393.537C952.733 389.004 962.466 377.804 971.4 368.471L987.666 351.671L987.266 348.871C986.2 343.004 978.6 325.804 975.666 323.004C973.933 321.404 972.066 318.604 971.533 317.004C971.133 315.271 969 311.804 967 309.271C965 306.737 962.6 302.204 961.533 299.271L959.666 293.937V272.204C959.666 260.337 959.533 250.604 959.4 250.604C959.266 250.604 956.866 255.271 954.066 260.871ZM931 425.937C932.733 427.804 933.8 429.271 933.4 429.271C933.133 429.271 931.4 427.804 929.666 425.937C927.933 424.071 926.866 422.604 927.266 422.604C927.533 422.604 929.266 424.071 931 425.937Z" fill="#E9D222"/>
<path d="M1071 142.471C1071 144.604 1072.6 148.871 1077.67 160.604C1078.33 162.071 1079.67 165.404 1080.87 167.938C1081.93 170.471 1084.6 176.471 1086.73 181.271C1088.87 186.071 1095.93 201.804 1102.47 216.471C1108.87 231.004 1115.13 243.271 1116.07 243.671C1119.27 244.871 1122.2 241.938 1124.07 235.804L1125.8 229.938L1124.47 216.604C1123.67 209.271 1121.8 199.671 1120.33 195.271C1116.47 184.071 1108.6 171.404 1099.13 161.004C1090.33 151.538 1075.93 139.938 1072.87 139.938H1071V142.471Z" fill="#E7E0AC"/>
<path d="M1024.07 155.537C1019.27 161.271 1014.33 168.204 1013.13 171.137C1008.87 181.271 1011.27 191.271 1020.07 200.337C1025.13 205.671 1046.73 221.537 1054.87 226.071C1059.67 228.737 1060.87 229.537 1068.47 234.204C1071.13 235.937 1073.93 237.271 1074.87 237.271C1077.93 237.271 1076.07 231.671 1066.33 211.671C1060.87 200.471 1056.33 190.204 1056.33 189.004C1056.33 187.804 1055.8 186.337 1055 185.937L1053.67 185.137V174.071C1053.67 168.071 1053.13 162.604 1052.47 161.804C1051.8 161.137 1051 159.137 1050.73 157.271L1050.33 153.937L1046.07 153.537C1043.67 153.271 1041.67 152.604 1041.67 152.071C1041.67 150.337 1036.33 145.271 1034.47 145.271C1033.53 145.271 1028.87 149.937 1024.07 155.537Z" fill="#E7E0AC"/>
<path d="M1004.87 375.937C1001.8 377.404 994.2 383.937 987.933 390.471L976.333 402.204L973.667 408.071C972.2 411.271 971 415.937 971 418.337C971 424.604 974.333 431.804 980.067 437.671C985.8 443.671 1003.67 456.737 1014.6 462.871L1022.2 467.137L1036.47 467.004L1050.87 466.871L1059.93 464.737C1064.87 463.404 1070.6 461.804 1072.73 461.004L1076.33 459.671V456.737C1076.33 455.271 1075.8 453.271 1075.27 452.471C1074.73 451.671 1071.53 449.137 1068.07 446.737L1061.67 442.471L1060.87 439.271C1059.8 435.137 1063 418.737 1065.27 416.471C1066.2 415.537 1067 413.537 1067 412.071V409.271L1054.07 396.471C1046.87 389.404 1037.93 381.537 1034.07 379.004L1027.13 374.337L1018.73 373.671L1010.33 373.137L1004.87 375.937Z" fill="#E7E0AC"/>
<path d="M1023 16.6042C1019.93 19.9375 1018.73 21.8042 1010.07 36.4708C1007.67 40.4708 1002.07 54.7375 997.533 68.2042C988.733 94.7375 985.4 102.337 968.2 136.604C955.267 162.204 951.4 169.404 944.867 180.071C942.333 184.204 940.333 188.337 940.333 189.137C940.333 189.938 939.8 190.604 939 190.604C938.333 190.604 937.667 191.271 937.667 192.071C937.667 192.871 934.733 198.471 931 204.604C927.4 210.738 924.333 216.204 924.333 217.004C924.333 217.804 923.933 218.604 923.4 218.871C920.333 220.204 899.133 264.071 894.067 279.271C889.133 294.204 887 307.271 887 322.338C887.133 339.538 889.8 355.404 895.933 375.004L896.733 377.404L898.867 377.004L901 376.604V356.604V336.604L903.667 333.004C905.133 331.138 908.067 328.471 910.067 327.271L913.8 325.004L918.2 325.804C920.467 326.204 925.667 328.738 929.667 331.271C933.667 333.804 937.4 335.938 938.067 335.938C938.6 335.938 940.333 335.271 941.8 334.604L944.333 333.138V329.271C944.333 327.138 942.2 318.871 939.533 311.004L934.6 296.604L933.933 285.671L933.4 274.604L934.867 268.338C937 260.204 943.133 247.938 948.6 241.137C952.6 236.204 964.467 226.071 976.733 217.271C979.267 215.404 982.067 212.871 983 211.404L984.6 209.004L983 205.404C982.2 203.538 979.533 200.471 977 198.604C974.467 196.738 971.533 193.004 970.2 190.337L967.933 185.404L968.733 179.271C969.533 173.671 971.533 168.871 983.667 143.271C988.867 132.337 994.2 119.137 1001 100.604C1003.67 93.2708 1009.53 79.8042 1013.93 70.6042C1027.53 42.2042 1031.27 33.0042 1033 22.8708L1033.93 17.1375L1032.33 15.2708C1029.93 12.3375 1026.6 12.8708 1023 16.6042Z" fill="#B78138"/>
<path d="M1097.67 141.804C1097.67 143.004 1098.6 143.938 1099.8 143.938C1101 143.938 1101.67 143.271 1101.4 142.337C1100.6 139.938 1097.67 139.537 1097.67 141.804Z" fill="#B78138"/>
<path d="M1101.67 148.471C1101.67 149.671 1102.6 150.604 1103.8 150.604C1106.07 150.604 1105.67 147.671 1103.27 146.871C1102.33 146.604 1101.67 147.271 1101.67 148.471Z" fill="#B78138"/>
<path d="M1105.67 155.138C1105.67 156.338 1106.6 157.271 1107.8 157.271C1109 157.271 1109.67 156.604 1109.4 155.671C1108.6 153.271 1105.67 152.871 1105.67 155.138Z" fill="#B78138"/>
<path d="M1109.67 161.938C1109.67 163.004 1110.6 163.938 1111.67 163.938C1112.73 163.938 1113.67 163.004 1113.67 161.938C1113.67 160.871 1112.73 159.938 1111.67 159.938C1110.6 159.938 1109.67 160.871 1109.67 161.938Z" fill="#B78138"/>
<path d="M1113.67 168.471C1113.67 169.671 1114.6 170.604 1115.8 170.604C1117 170.604 1117.67 169.937 1117.4 169.004C1116.6 166.604 1113.67 166.204 1113.67 168.471Z" fill="#B78138"/>
<path d="M1120.33 179.138C1120.33 180.338 1121.27 181.271 1122.47 181.271C1123.67 181.271 1124.33 180.604 1124.07 179.671C1123.27 177.271 1120.33 176.871 1120.33 179.138Z" fill="#B78138"/>
<path d="M1124.33 185.937C1124.33 187.004 1124.87 187.937 1125.53 187.937C1126.2 187.937 1127.13 189.404 1127.53 191.271L1128.33 194.604H1130.33C1133.13 194.604 1132.87 192.471 1129.4 187.937C1126.2 183.537 1124.33 182.871 1124.33 185.937Z" fill="#B78138"/>
<path d="M1145.67 220.204C1145.8 222.737 1149.53 227.271 1150.6 226.204C1151.67 225.004 1148.73 218.604 1147 218.604C1146.33 218.604 1145.67 219.404 1145.67 220.204Z" fill="#B78138"/>
<path d="M1161.67 252.471C1161.67 253.671 1162.33 254.604 1163 254.604C1163.8 254.604 1164.33 254.071 1164.33 253.404C1164.33 252.604 1163.8 251.671 1163 251.271L1161.67 250.471V252.471Z" fill="#B78138"/>
<path d="M1165.67 263.271C1165.67 264.338 1166.33 265.271 1167 265.271C1167.8 265.271 1168.33 264.338 1168.33 263.271C1168.33 262.204 1167.8 261.271 1167 261.271C1166.33 261.271 1165.67 262.204 1165.67 263.271Z" fill="#B78138"/>
<path d="M1169.67 275.271C1169.67 276.338 1170.33 277.271 1171 277.271C1171.8 277.271 1172.33 276.338 1172.33 275.271C1172.33 274.204 1171.8 273.271 1171 273.271C1170.33 273.271 1169.67 274.204 1169.67 275.271Z" fill="#B78138"/>
<path d="M1172.33 284.604C1172.33 285.671 1173 286.604 1173.67 286.604C1174.47 286.604 1175 285.671 1175 284.604C1175 283.537 1174.47 282.604 1173.67 282.604C1173 282.604 1172.33 283.537 1172.33 284.604Z" fill="#B78138"/>
<path d="M1173.67 289.804C1173.67 291.004 1174.33 291.938 1175 291.938C1175.8 291.938 1176.33 291.404 1176.33 290.738C1176.33 289.938 1175.8 289.004 1175 288.604L1173.67 287.804V289.804Z" fill="#B78138"/>
<path d="M1176.33 304.604C1176.33 305.671 1177 306.604 1177.67 306.604C1178.47 306.604 1179 305.671 1179 304.604C1179 303.537 1178.47 302.604 1177.67 302.604C1177 302.604 1176.33 303.537 1176.33 304.604Z" fill="#B78138"/>
<path d="M1177.67 321.271C1177.67 323.404 1178.33 325.271 1179 325.271C1179.8 325.271 1180.33 323.404 1180.33 321.271C1180.33 319.004 1179.8 317.271 1179 317.271C1178.33 317.271 1177.67 319.004 1177.67 321.271Z" fill="#B78138"/>
<path d="M1177.67 331.271C1177.67 333.804 1178.33 335.938 1179 335.938C1179.8 335.938 1180.33 333.804 1180.33 331.271C1180.33 328.737 1179.8 326.604 1179 326.604C1178.33 326.604 1177.67 328.737 1177.67 331.271Z" fill="#B78138"/>
<path d="M1176.33 347.271C1176.33 348.338 1177 349.271 1177.67 349.271C1178.47 349.271 1179 348.338 1179 347.271C1179 346.204 1178.47 345.271 1177.67 345.271C1177 345.271 1176.33 346.204 1176.33 347.271Z" fill="#B78138"/>
<path d="M1174.6 355.538C1173.27 356.871 1173.53 361.271 1174.87 361.271C1176.07 361.271 1177.67 358.071 1177.67 355.804C1177.67 354.338 1175.8 354.204 1174.6 355.538Z" fill="#B78138"/>
<path d="M899 381.938C899 383.004 899.933 383.938 901 383.938C902.067 383.938 903 383.004 903 381.938C903 380.871 902.067 379.938 901 379.938C899.933 379.938 899 380.871 899 381.938Z" fill="#B78138"/>
<path d="M1145.93 413.404L1142.87 416.604L1144.47 417.138C1146.47 417.804 1150.07 413.938 1149.4 411.804L1148.87 410.204L1145.93 413.404Z" fill="#B78138"/>
<path d="M1123 434.604C1121.93 435.271 1121.53 436.204 1122.07 436.738C1122.6 437.271 1123.8 437.004 1124.6 436.204C1126.6 434.204 1125.53 433.004 1123 434.604Z" fill="#B78138"/>
<path d="M1116.33 439.937C1115.27 440.604 1114.87 441.537 1115.4 442.071C1115.93 442.604 1117.13 442.337 1117.93 441.537C1119.93 439.537 1118.87 438.337 1116.33 439.937Z" fill="#B78138"/>
<path d="M1083.67 454.604C1080.73 456.071 1077.53 457.137 1076.73 457.271C1075.8 457.271 1075 458.071 1075 459.137V461.004L1079.53 459.937C1086.47 458.471 1092.33 455.537 1092.33 453.671C1092.33 451.271 1089.93 451.537 1083.67 454.604Z" fill="#B78138"/>
<path d="M981.933 458.871C982.733 461.271 985.667 461.671 985.667 459.404C985.667 458.204 984.733 457.271 983.533 457.271C982.333 457.271 981.667 457.937 981.933 458.871Z" fill="#B78138"/>
<path d="M993.667 462.471C993.667 463.537 1000.6 466.604 1003.13 466.604C1005.67 466.604 1004.2 462.871 1001.4 462.071C997 461.004 993.667 461.137 993.667 462.471Z" fill="#B78138"/>
<path d="M1061.13 462.471C1059 462.871 1057 464.071 1056.6 465.137L1055.93 467.004L1058.47 465.937C1059.93 465.404 1062.6 464.604 1064.73 464.204C1066.73 463.937 1068.73 463.137 1069.13 462.471C1069.93 461.137 1067 461.137 1061.13 462.471Z" fill="#B78138"/>
<path d="M1009.67 465.938C1009.67 467.004 1010.6 467.938 1011.67 467.938C1012.73 467.938 1013.67 467.004 1013.67 465.938C1013.67 464.871 1012.73 463.938 1011.67 463.938C1010.6 463.938 1009.67 464.871 1009.67 465.938Z" fill="#B78138"/>
<path d="M1019 466.604V467.938H1030.33C1036.6 467.938 1041.67 467.537 1041.67 466.871C1041.67 466.337 1036.6 465.804 1030.33 465.671L1019 465.271V466.604Z" fill="#B78138"/>
<path d="M1043 466.604C1043 467.271 1044.2 467.938 1045.53 467.938C1047 467.938 1048.6 467.271 1049 466.604L1049.8 465.271H1046.47C1044.6 465.271 1043 465.804 1043 466.604Z" fill="#B78138"/>
<path d="M1064.33 129.271V131.937L1060.87 130.604C1059 129.804 1054.87 129.271 1051.67 129.271H1045.67L1038.33 132.204L1030.87 135.271L1019 147.404L1007.27 159.537L1003.8 166.337L1000.33 173.137V180.204C1000.33 190.204 1002.6 197.271 1007.4 202.337C1013 208.204 1028.73 220.204 1043.67 229.804C1058.47 239.537 1079.8 250.604 1083.27 250.604H1086.07L1085.27 245.537L1084.47 240.604L1094.87 241.004L1105.27 241.537L1107.27 239.537L1109.27 237.404L1111.13 241.004C1114.87 248.204 1119.4 254.604 1121 254.604C1123.4 254.604 1127.93 249.137 1130.47 243.271L1132.73 237.937L1132.87 225.271V212.604L1130.6 205.937C1125.67 191.671 1102.07 152.604 1092.73 143.404C1085.8 136.604 1070.6 126.604 1067.13 126.604H1064.33V129.271ZM1093 157.937L1105.27 169.937L1110.73 179.271C1118.07 191.671 1121.53 202.071 1123 216.604L1124.2 228.471L1122.87 234.204C1122.07 237.271 1120.47 240.604 1119.4 241.404L1117.53 243.004L1116.33 241.804C1115.67 241.137 1109.8 228.604 1103.27 213.937C1096.6 199.271 1089.67 183.671 1087.67 179.271C1085.8 174.871 1083.27 169.137 1082.2 166.604C1081 164.071 1079.67 160.737 1079 159.271C1074.47 148.737 1072.33 143.404 1072.33 142.337C1072.33 139.671 1081.4 146.471 1093 157.937ZM1039 151.271L1040.73 154.471L1044.87 154.871L1049 155.271L1049.4 158.604C1049.67 160.471 1050.47 162.471 1051.13 163.137C1051.8 163.937 1052.33 169.404 1052.33 175.404V186.471L1053.67 187.271C1054.47 187.671 1055 189.137 1055 190.337C1055 191.537 1059.53 201.804 1065 213.004C1070.47 224.337 1075 234.204 1075 234.871V236.204L1071.67 234.071C1067.4 231.271 1060.6 227.271 1055.67 224.471C1048.07 220.337 1026.33 204.204 1021.4 199.004C1016.07 193.537 1012.33 185.937 1012.33 180.871C1012.33 175.137 1016.47 167.537 1025.27 157.004L1033.93 146.737L1035.67 147.404C1036.6 147.804 1038.07 149.537 1039 151.271Z" fill="#E4D182"/>
<path d="M993.267 371.271C982.6 379.937 967.4 397.004 963.667 404.471L960.333 411.137V418.871V426.737L963 432.071C966.867 439.404 973.667 446.737 984.2 454.471C992.733 460.871 1006.33 467.137 1009.93 466.471C1010.87 466.204 1012.87 466.471 1014.33 467.004C1015.8 467.404 1020.33 467.271 1024.33 466.737L1031.67 465.537L1027.13 465.404L1022.6 465.271L1015.4 461.271C1005 455.271 987 442.204 981.4 436.337C976.067 430.871 972.333 423.271 972.333 418.204C972.333 416.471 973.8 412.071 975.667 408.337L979.133 401.537L991.4 389.671L1003.8 377.671L1008.87 375.937L1013.93 374.337L1020.2 375.137L1026.33 375.937L1033 380.471C1041.27 386.071 1065.67 409.937 1065.67 412.471C1065.67 413.537 1065 414.604 1064.33 414.871C1062.6 415.404 1059.13 429.404 1059 435.671C1059 438.071 1059.53 441.271 1060.33 442.604C1061 443.937 1064.33 446.737 1067.67 448.737C1071 450.871 1074.07 453.804 1074.47 455.271L1075.4 457.804L1074.07 458.204C1073.27 458.471 1071.53 459.537 1070.2 460.604L1067.67 462.471L1070.6 462.604C1074.33 462.604 1077.67 459.271 1077.67 455.271V452.071L1070.2 446.604C1066.2 443.537 1062.47 440.204 1062.07 439.004C1061.67 437.937 1061.93 433.271 1062.73 428.871L1064.2 420.871L1067.67 415.937L1071 411.137V406.204V401.271L1065.4 399.004C1062.33 397.804 1060.6 396.471 1061.4 396.204C1064.33 395.271 1063.13 391.137 1058.6 386.871C1056.2 384.471 1053.53 382.604 1052.6 382.604H1051V386.337C1051 388.337 1051.4 390.604 1052.07 391.404C1053.27 393.004 1044.07 383.537 1039 377.671L1035.13 373.537L1029.4 372.604C1026.2 372.071 1020.47 370.204 1016.47 368.471C1012.6 366.737 1007.4 365.271 1005 365.271H1000.6L993.267 371.271ZM1057 394.604C1057.4 395.271 1057.53 395.937 1057.13 395.937C1056.73 395.937 1056.07 395.271 1055.67 394.604C1055.27 393.804 1055.13 393.271 1055.53 393.271C1055.93 393.271 1056.6 393.804 1057 394.604Z" fill="#E4D182"/>
<path d="M1064.33 462.604C1064.33 463.271 1065 463.938 1065.67 463.938C1066.47 463.938 1067 463.271 1067 462.604C1067 461.804 1066.47 461.271 1065.67 461.271C1065 461.271 1064.33 461.804 1064.33 462.604Z" fill="#E4D182"/>
<path d="M1055 464.204L1051.67 465.671L1054.33 466.338C1055.67 466.604 1057.13 466.338 1057.4 465.538C1057.67 464.738 1058.73 464.471 1059.8 464.871C1060.87 465.271 1061.67 464.871 1061.67 464.071C1061.67 462.204 1059.4 462.338 1055 464.204Z" fill="#E4D182"/>
<path d="M1039 466.604C1041.67 468.338 1044.33 468.338 1044.33 466.604C1044.33 465.804 1042.73 465.271 1040.73 465.271H1037L1039 466.604Z" fill="#E4D182"/>
<path d="M1022.73 4.87109C1017.53 10.8711 1013.4 19.6711 1007.8 36.7378C1004.47 46.8711 1001.67 55.6711 1001.67 56.2044C1001.67 56.8711 1002.2 57.1378 1002.87 56.7378C1003.53 56.3378 1004.47 54.0711 1004.87 51.6711C1005.4 49.2711 1008.07 43.4044 1011 38.6044C1013.8 33.8044 1017.4 27.8044 1018.87 25.2711C1020.2 22.7378 1023 19.1378 1024.87 17.4044L1028.2 14.2044L1030.33 15.9378L1032.33 17.6711L1031.53 22.4711C1029.8 32.0711 1025.8 41.8044 1012.6 69.2711C1008.2 78.4711 1002.33 91.9378 999.666 99.2711C992.866 117.804 987.533 131.004 982.332 141.938C979.933 147.004 975.666 155.938 972.999 161.804L968.066 172.338L967.399 179.538L966.599 186.604L968.866 191.671C970.199 194.338 973.132 198.071 975.666 199.938C978.199 201.804 980.732 204.604 981.533 206.204L982.866 209.004L979.266 212.604C977.266 214.604 972.599 218.338 968.732 220.871C959.799 226.871 946.999 239.138 942.866 245.938C937.799 254.071 933.933 264.071 932.599 272.204L931.532 279.538L932.466 288.871C932.999 293.938 935.533 304.471 938.199 312.338C940.866 320.204 942.999 327.804 942.999 329.271C942.999 330.738 941.933 332.471 940.466 333.138L938.066 334.471L930.866 329.938C923.266 325.004 916.999 323.138 911.799 324.471C910.066 324.871 906.866 327.138 904.599 329.404L900.599 333.538L899.666 338.338C899.132 341.004 899.132 349.938 899.666 358.204L900.599 373.271L899.399 375.004C897.399 377.404 897.799 381.271 899.932 381.271C900.999 381.271 901.399 381.804 900.999 382.604C900.599 383.404 900.599 384.604 900.999 385.271L901.932 386.738L904.732 383.004L907.666 379.271V358.871V338.338L910.866 335.804C912.599 334.471 915.666 333.271 917.666 333.271H921.399L929.266 339.138C933.532 342.338 938.333 345.404 940.066 345.938L943.132 346.871L947.133 345.271L950.999 343.671L952.333 338.471L953.799 333.404L946.733 313.004L939.799 292.604V282.604V272.604L942.066 265.671C946.599 250.871 959.132 236.738 980.732 222.204C986.732 218.204 992.732 213.671 994.066 212.204L996.466 209.671L995.132 206.338C994.466 204.604 992.332 201.271 990.466 198.871L986.866 194.738L985.132 195.404L983.399 196.071L978.999 191.138L974.732 186.204L975.266 179.404L975.933 172.604L987.266 148.604C993.533 135.404 1000.33 120.071 1002.33 114.604C1010.2 93.1378 1013.13 86.3378 1025.8 60.6044C1033.13 45.9378 1039 33.0045 1039 31.6711C1039 28.6044 1034.07 14.0711 1030.73 7.53778C1029.4 4.87109 1027.53 2.60443 1026.47 2.60443C1025.53 2.60443 1023.8 3.67111 1022.73 4.87109Z" fill="#C69B30"/>
<path d="M999.133 63.4043C997.266 69.9376 998.199 70.871 1000.33 64.6043C1001.27 61.9376 1001.67 59.4043 1001.27 59.0043C1000.87 58.6043 999.933 60.6043 999.133 63.4043Z" fill="#C69B30"/>
<path d="M995.133 75.4043C993.266 81.9376 994.199 82.871 996.333 76.6043C997.266 73.9376 997.666 71.4043 997.266 71.0043C996.866 70.6043 995.933 72.6043 995.133 75.4043Z" fill="#C69B30"/>
<path d="M991.133 86.7376C990.333 89.1376 989.933 91.271 990.199 91.5376C990.466 91.8043 991.399 90.2043 992.333 87.9376C993.266 85.671 993.666 83.5376 993.399 83.1376C992.999 82.7376 991.933 84.3376 991.133 86.7376Z" fill="#C69B30"/>
<path d="M987.799 95.2709C986.599 98.7376 986.866 99.5376 988.466 96.8709C989.266 95.5376 989.666 94.0709 989.266 93.8043C988.999 93.4043 988.333 94.0709 987.799 95.2709Z" fill="#C69B30"/>
<path d="M983.933 104.738C982.599 107.271 982.333 109.004 982.999 108.604C984.599 107.671 987.399 101.271 986.599 100.471C986.333 100.204 985.133 102.071 983.933 104.738Z" fill="#C69B30"/>
<path d="M1079 108.471C1079 108.871 1080.87 112.204 1083 115.804C1085.27 119.404 1087.4 123.671 1087.67 125.138C1088.07 127.671 1105 156.871 1106.87 158.604C1107.27 159.004 1108.87 161.538 1110.2 164.204C1111.67 167.004 1113.27 169.271 1113.8 169.271C1115.8 169.271 1116.73 166.338 1115 165.271C1114.2 164.738 1113.4 163.804 1113.4 163.138C1113.4 162.471 1112.87 162.071 1112.2 162.204C1111.67 162.471 1111.4 161.671 1111.8 160.604L1112.6 158.604H1111.13C1110.33 158.604 1109.67 157.671 1109.67 156.471C1109.67 155.404 1109.13 154.871 1108.33 155.271L1107 156.071L1107.8 154.071L1108.6 151.938H1107.13C1106.33 151.938 1105.8 151.138 1106.07 150.204C1106.2 149.404 1105.53 148.738 1104.47 149.004L1102.73 149.404L1103.4 147.271C1103.93 146.204 1103.67 145.271 1103 145.271C1102.2 145.271 1101.8 144.471 1102.07 143.538C1102.2 142.738 1101.53 142.071 1100.6 142.338L1098.73 142.738L1099.27 141.004C1099.67 140.071 1099 138.471 1097.8 137.538L1095.67 135.804L1097.53 136.738L1099.4 137.671L1098.47 136.071C1097.8 135.138 1096.47 134.738 1095.4 135.271L1093.27 135.938L1095 133.938L1096.6 131.938H1095.13C1094.33 131.938 1093.8 131.138 1094.07 130.204L1094.33 128.604L1091.93 128.738L1089.53 129.004L1091.27 126.871L1093 124.738L1090.47 125.671L1087.93 126.604L1089.67 124.604L1091.27 122.604L1089.13 121.804C1087.93 121.404 1087.4 120.471 1087.8 119.804C1088.2 119.138 1087.8 118.604 1087 118.604C1086.2 118.604 1085.93 117.938 1086.33 117.271C1086.73 116.471 1086.2 115.538 1085.13 115.138C1083.93 114.738 1083.4 113.804 1083.8 113.138C1084.2 112.471 1083.8 111.938 1083.13 111.938C1082.33 111.938 1081.8 111.271 1082.07 110.471C1082.2 109.671 1081.53 108.604 1080.73 108.338C1079.8 107.938 1079 108.071 1079 108.471Z" fill="#C69B30"/>
<path d="M1115 170.738C1115 173.271 1117.8 177.271 1119.53 177.271H1121.4L1120.73 174.604C1120.33 173.138 1119.4 171.938 1118.73 171.938C1118.07 171.938 1117.93 171.271 1118.33 170.604L1119.13 169.271H1117.13C1115.93 169.271 1115 169.938 1115 170.738Z" fill="#C69B30"/>
<path d="M1120.6 181.004C1120.87 182.204 1121.93 183.404 1123.13 183.671L1125.27 184.071V182.071C1125.27 181.004 1124.07 179.804 1122.73 179.538L1120.2 178.871L1120.6 181.004Z" fill="#C69B30"/>
<path d="M1124.33 186.604C1124.33 189.138 1133.67 203.138 1135.53 203.404L1137.4 203.671L1137.13 201.538C1136.87 200.338 1136.07 199.138 1135.27 198.871C1134.33 198.604 1133.93 197.804 1134.47 197.138C1134.87 196.471 1134.47 195.938 1133.8 195.938C1133 195.938 1132.47 195.138 1132.73 194.204C1132.87 193.404 1132.33 192.738 1131.4 192.871C1130.6 193.004 1129.53 192.338 1129.13 191.138L1128.33 189.138L1129.67 189.938L1131 190.738L1130.2 188.871C1129.4 186.738 1124.33 184.871 1124.33 186.604Z" fill="#C69B30"/>
<path d="M1136.87 206.738C1136.47 207.538 1136.73 208.871 1137.67 209.671L1139.4 211.271L1138.33 209.404L1137.27 207.538L1138.87 208.471C1139.8 209.138 1140.2 210.471 1139.8 211.538C1139.4 212.604 1139.53 213.138 1140.07 212.871C1141.27 212.204 1145.67 216.738 1144.87 217.671C1144.47 218.071 1144.73 218.738 1145.53 219.138L1146.87 220.071L1146.33 217.004C1145.93 215.271 1144.6 213.138 1143.4 212.204C1142.07 211.271 1141.13 210.204 1141.4 209.938C1142.73 207.271 1138.47 204.204 1136.87 206.738Z" fill="#C69B30"/>
<path d="M1146.47 222.871C1146.87 223.538 1147.8 223.671 1148.47 223.271C1150.2 222.071 1149.93 221.671 1147.67 221.671C1146.6 221.671 1146.07 222.204 1146.47 222.871Z" fill="#C69B30"/>
<path d="M1149.67 227.938C1150.47 229.404 1151.67 230.604 1152.47 230.604C1153.27 230.604 1153.53 231.138 1153.13 231.804C1152.07 233.404 1158.73 246.604 1160.47 246.604C1162.2 246.604 1161.93 245.404 1159.67 243.004C1158.6 241.938 1157.93 240.471 1158.33 239.804C1158.87 239.138 1158.47 238.604 1157.67 238.604C1156.87 238.604 1156.47 238.071 1156.87 237.404C1157.4 236.738 1157.13 235.938 1156.33 235.671C1155.53 235.404 1154.73 233.804 1154.33 232.071C1153.67 228.604 1151.27 225.271 1149.4 225.271H1148.2L1149.67 227.938Z" fill="#C69B30"/>
<path d="M1160.33 249.138C1160.33 249.938 1160.87 250.871 1161.67 251.271L1163 252.071L1162.2 250.071C1161.27 247.671 1160.33 247.271 1160.33 249.138Z" fill="#C69B30"/>
<path d="M1162.33 254.604C1162.73 255.271 1163.67 255.938 1164.47 255.938C1165.13 255.938 1165.67 255.271 1165.67 254.604C1165.67 253.804 1164.73 253.271 1163.53 253.271H1161.53L1162.33 254.604Z" fill="#C69B30"/>
<path d="M1164.33 258.471C1164.33 259.271 1164.87 260.071 1165.4 260.471C1166.07 260.871 1166.6 260.338 1166.6 259.271C1166.6 258.204 1166.07 257.271 1165.4 257.271C1164.87 257.271 1164.33 257.804 1164.33 258.471Z" fill="#C69B30"/>
<path d="M1166.33 265.271C1166.73 265.938 1167.67 266.604 1168.47 266.604C1169.13 266.604 1169.67 265.938 1169.67 265.271C1169.67 264.471 1168.73 263.938 1167.53 263.938H1165.53L1166.33 265.271Z" fill="#C69B30"/>
<path d="M1168.33 270.471C1168.33 271.138 1169 272.204 1169.67 272.604C1170.47 273.004 1171 272.871 1171 272.071C1171 271.404 1170.47 270.338 1169.67 269.938C1169 269.538 1168.33 269.671 1168.33 270.471Z" fill="#C69B30"/>
<path d="M1169.67 277.138C1169.67 277.804 1170.6 278.604 1171.67 279.138L1173.67 279.804V277.938C1173.67 276.871 1172.73 275.938 1171.67 275.938C1170.6 275.938 1169.67 276.471 1169.67 277.138Z" fill="#C69B30"/>
<path d="M1173 286.604C1173.4 287.271 1174.07 287.938 1174.47 287.938C1174.73 287.938 1175 287.271 1175 286.604C1175 285.804 1174.33 285.271 1173.53 285.271C1172.87 285.271 1172.6 285.804 1173 286.604Z" fill="#C69B30"/>
<path d="M1174.33 290.604C1173.27 292.338 1174.87 297.271 1176.47 297.271C1177.13 297.271 1177.67 296.071 1177.67 294.604C1177.67 293.138 1177 291.938 1176.2 291.938C1175.53 291.938 1175.27 291.271 1175.67 290.604C1176.07 289.804 1176.2 289.271 1175.8 289.271C1175.4 289.271 1174.73 289.938 1174.33 290.604Z" fill="#C69B30"/>
<path d="M1176.33 307.138C1176.33 308.204 1177 309.538 1177.67 309.938C1178.47 310.338 1179 309.804 1179 308.738C1179 307.671 1178.47 306.338 1177.67 305.938C1177 305.538 1176.33 306.071 1176.33 307.138Z" fill="#C69B30"/>
<path d="M1177.8 326.071L1177.93 328.604L1178.6 326.871C1179 325.938 1178.87 324.738 1178.47 324.338C1178.07 323.804 1177.67 324.604 1177.8 326.071Z" fill="#C69B30"/>
<path d="M1177.13 343.804C1176.6 344.738 1176.47 345.804 1176.87 346.204C1178.07 347.404 1179.4 345.671 1178.73 343.804L1178.2 342.071L1177.13 343.804Z" fill="#C69B30"/>
<path d="M1174.33 356.071C1173.8 356.871 1173.67 357.804 1174.07 358.204C1175 359.138 1177.67 357.404 1177.67 355.804C1177.67 354.204 1175.4 354.204 1174.33 356.071Z" fill="#C69B30"/>
<path d="M1173.27 362.204C1172.73 362.604 1172.33 363.671 1172.33 364.471V365.804L1173.93 364.204C1174.73 363.404 1175.13 362.338 1174.87 361.938C1174.47 361.538 1173.67 361.671 1173.27 362.204Z" fill="#C69B30"/>
<path d="M1170.6 368.871C1170.33 369.538 1169.67 371.538 1169.13 373.538L1168.33 377.271H1169.67C1170.47 377.271 1170.87 376.738 1170.47 376.071C1170.07 375.404 1170.6 374.204 1171.67 373.271C1173.93 371.404 1174.33 367.938 1172.47 367.938C1171.67 367.938 1170.87 368.338 1170.6 368.871Z" fill="#C69B30"/>
<path d="M1165.67 382.071C1164.07 386.338 1164.07 386.604 1165.8 386.604C1166.47 386.604 1166.87 386.071 1166.47 385.404C1166.07 384.738 1166.6 383.538 1167.67 382.604C1169.93 380.738 1170.33 378.604 1168.33 378.604C1167.53 378.604 1166.33 380.204 1165.67 382.071Z" fill="#C69B30"/>
<path d="M902.466 389.138C901.933 389.938 902.199 390.604 902.866 390.604C903.666 390.604 904.199 391.004 904.199 391.538C903.799 394.071 904.466 395.938 905.799 395.938H907.133L906.333 392.871C905.799 391.271 904.866 389.404 904.333 388.871L903.266 387.671L902.466 389.138Z" fill="#C69B30"/>
<path d="M908.333 400.204C908.333 401.538 908.999 402.604 909.666 402.604C910.466 402.604 910.866 403.271 910.733 404.071C910.466 404.871 911.133 405.938 912.066 406.204C914.466 407.138 914.066 405.138 910.999 401.271L908.333 397.938V400.204Z" fill="#C69B30"/>
<path d="M1149.27 408.871C1147.93 410.071 1148.07 411.938 1149.4 411.938C1150.07 411.938 1150.6 411.004 1150.6 409.938C1150.6 407.671 1150.47 407.538 1149.27 408.871Z" fill="#C69B30"/>
<path d="M915.399 411.271C915.399 412.338 915.933 413.271 916.599 413.271C917.133 413.271 917.666 412.738 917.666 412.071C917.666 411.271 917.133 410.471 916.599 410.071C915.933 409.671 915.399 410.204 915.399 411.271Z" fill="#C69B30"/>
<path d="M1133.4 425.404C1128.33 430.338 1124.87 434.871 1125.67 435.271C1126.33 435.671 1127.53 434.738 1128.33 433.138C1129.27 431.671 1130.2 430.738 1130.73 431.138C1131.53 432.071 1145.67 418.738 1145.67 417.004C1145.67 414.338 1141.67 417.138 1133.4 425.404Z" fill="#C69B30"/>
<path d="M922.199 419.138C922.599 421.938 925.399 424.738 926.599 423.538C927.133 423.004 926.199 421.271 924.733 419.671L921.799 416.871L922.199 419.138Z" fill="#C69B30"/>
<path d="M932.599 430.871C932.866 431.671 934.199 432.471 935.533 432.738L937.799 433.004L936.199 431.138C934.333 428.871 931.933 428.604 932.599 430.871Z" fill="#C69B30"/>
<path d="M940.733 434.204C938.733 434.871 938.466 437.271 940.199 437.271C940.866 437.271 941.666 436.338 942.199 435.271C942.599 434.204 942.733 433.271 942.599 433.404C942.466 433.404 941.533 433.804 940.733 434.204Z" fill="#C69B30"/>
<path d="M1119.8 437.138L1117.4 439.671L1119.93 439.404C1121.27 439.138 1122.47 438.071 1122.73 436.871C1123.27 433.938 1122.6 434.071 1119.8 437.138Z" fill="#C69B30"/>
<path d="M942.466 438.071L941.666 440.338L943.666 438.604L945.666 436.871L944.866 439.138L944.066 441.271H945.399C947.799 441.271 948.733 438.338 946.866 437.138C944.199 435.538 943.399 435.671 942.466 438.071Z" fill="#C69B30"/>
<path d="M1114.47 441.004C1114.07 441.671 1114.6 442.204 1115.67 442.204C1116.73 442.204 1117.27 441.671 1116.87 441.004C1116.47 440.471 1115.93 439.938 1115.67 439.938C1115.4 439.938 1114.87 440.471 1114.47 441.004Z" fill="#C69B30"/>
<path d="M1103.93 446.738C1100.47 448.871 1096.87 450.604 1095.93 450.471C1092.47 450.071 1091 450.738 1091 452.604V454.604H1093.53C1094.87 454.604 1096.73 453.671 1097.67 452.604C1098.6 451.538 1099.8 451.004 1100.47 451.404C1101.13 451.804 1101.67 451.404 1101.67 450.604C1101.67 449.804 1102.2 449.404 1102.73 449.804C1103.4 450.204 1104.87 449.271 1106.07 447.804C1107.4 446.338 1108.87 445.538 1109.53 445.938C1110.2 446.204 1111 445.671 1111.53 444.604C1111.93 443.538 1111.8 442.604 1111.27 442.604C1110.73 442.604 1107.4 444.471 1103.93 446.738Z" fill="#C69B30"/>
<path d="M954.466 446.204C953.933 447.538 953.933 448.071 954.466 447.538C954.999 447.004 956.199 447.671 957.133 449.004L958.999 451.271L960.333 449.271L961.666 447.271L959.399 445.538C956.466 443.404 955.399 443.538 954.466 446.204Z" fill="#C69B30"/>
<path d="M1058.2 116.471L1057.53 118.204L1051.53 117.537L1045.53 116.871L1035.53 121.937L1025.53 127.004L1012.73 140.737C1005.67 148.337 998.6 156.471 996.867 159.004C995.267 161.537 992.867 167.004 991.667 171.271L989.4 179.004L990.2 184.337L991.133 189.671L995.8 195.004C998.333 198.071 1001.93 203.671 1003.93 207.537L1007.27 214.604L1016.2 221.537C1026.6 229.804 1044.87 240.871 1059 247.404C1075.67 255.137 1080.33 257.804 1081 260.071L1081.8 262.337L1087.8 263.937C1091 264.871 1094.07 265.271 1094.6 264.737C1095.13 264.337 1093.93 260.204 1092.07 255.537L1088.6 247.271L1096.73 245.004L1104.87 242.871L1106.73 240.337L1108.6 237.937L1109.27 239.537C1109.67 240.471 1110.73 241.271 1111.8 241.271H1113.8L1111.4 238.071L1109 234.871L1106.47 237.537L1103.93 240.204L1095.13 239.537C1090.33 239.137 1085 238.471 1083.4 237.937L1080.47 237.004L1082.6 242.471C1083.8 245.537 1084.33 248.337 1083.8 248.871C1082.6 250.071 1059.67 238.071 1045 228.471C1030.07 218.871 1014.33 206.871 1008.73 201.004C1004.2 196.204 1001.67 189.004 1001.67 180.204V174.471L1005.13 167.671L1008.6 160.871L1020.6 148.471C1027.27 141.671 1033 136.071 1033.53 136.204C1033.93 136.337 1037.27 135.004 1040.87 133.271L1047.4 130.337L1053.53 131.004C1056.87 131.404 1061 132.204 1062.73 132.604L1065.67 133.537V130.737C1065.67 129.271 1066.33 127.937 1067.13 127.937C1069.53 127.937 1085.8 139.271 1091.4 144.737C1100.73 153.937 1124.47 193.004 1129.27 207.271L1131.53 213.937V225.271L1131.4 236.604L1128.73 242.604C1127.27 245.937 1124.87 249.671 1123.4 251.004L1120.6 253.404L1117.67 248.604C1116.07 245.937 1114.33 244.071 1114.07 244.471C1113.27 245.271 1118.6 259.537 1120.73 262.204C1122.47 264.604 1126.47 264.337 1130.47 261.671C1137.27 257.271 1143.93 237.537 1142.07 227.537C1141.13 222.204 1131.93 202.871 1122.87 187.271C1119 180.604 1115.27 174.071 1114.47 172.604C1113.67 171.137 1107.4 160.871 1100.6 149.671L1088.2 129.404L1082.87 124.604C1073.93 116.604 1059.93 111.937 1058.2 116.471Z" fill="#E5D45E"/>
<path d="M1012.33 355.271V359.004L1014.73 360.737C1015.93 361.671 1019.4 362.604 1022.47 362.604C1027.8 362.604 1031 360.871 1031 357.671C1031 355.271 1027.13 353.537 1019.27 352.471L1012.33 351.537V355.271Z" fill="#E5D45E"/>
<path d="M1035 361.804C1034.2 362.871 1033.67 365.138 1033.93 366.871L1034.33 369.938L1039.67 371.271C1042.6 371.938 1045.8 373.138 1046.73 373.671L1048.33 374.738V380.738V386.604L1045.8 385.004C1044.33 384.071 1042.87 382.338 1042.6 381.004C1041.93 378.471 1039 377.671 1039 379.938C1039 380.604 1042.47 384.604 1046.73 388.871L1054.33 396.604L1061.67 399.404L1069 402.338L1069.4 405.938L1069.93 409.671L1067.13 413.404L1064.2 417.271H1066.33C1067.4 417.271 1068.33 416.604 1068.33 415.804C1068.33 415.004 1069.27 413.538 1070.33 412.471L1072.33 410.471V405.671V400.871L1070.07 399.271L1067.8 397.671L1070.73 396.738L1073.67 395.804V392.738V389.671L1062.73 379.138C1051.93 368.871 1040.47 359.938 1037.93 359.938C1037.27 359.938 1035.93 360.871 1035 361.804ZM1061.4 394.071C1060.87 394.471 1058.6 393.538 1056.47 391.938L1052.33 389.138V386.204V383.271L1057.27 388.204C1059.93 391.004 1061.8 393.538 1061.4 394.071Z" fill="#E5D45E"/>
<path d="M977.933 373.537C961 391.004 955.4 398.204 952.2 406.604L949.4 413.937L950.2 421.804C950.6 426.071 952.333 432.204 953.933 435.537C957.4 442.337 967.4 453.271 970.333 453.271C971.4 453.271 972.333 453.937 972.333 454.737C972.333 455.404 972.867 455.804 973.533 455.404C974.2 455.004 975 455.537 975.4 456.604L976.2 458.471L979 457.937C980.467 457.671 981.667 457.937 981.667 458.604C981.667 459.271 982.467 459.537 983.533 459.137C984.467 458.737 986.2 459.271 987.133 460.204C988.2 461.137 989.933 461.937 991 461.937C992.067 461.937 993.267 462.337 993.667 462.871C994.067 463.404 995.133 463.404 996.067 462.737L997.667 461.804L987.667 454.604C976.067 446.337 968.333 438.471 964.467 430.737L961.667 425.404V418.871V412.471L965 405.804C968.733 398.337 983.933 381.271 994.6 372.604L1001.93 366.604H1005C1006.6 366.604 1011.27 368.071 1015.13 369.804C1023.27 373.404 1031 375.137 1031 373.404C1031 371.937 1027.67 370.604 1023.8 370.604C1022.2 370.604 1019.53 369.671 1017.93 368.471C1014.33 365.937 998.467 361.271 993.4 361.271H989.933L977.933 373.537Z" fill="#E5D45E"/>
<path d="M1034.07 375.538C1035.27 376.738 1036.6 377.404 1037.13 377.004C1038.47 375.671 1036.33 373.271 1033.93 373.271H1031.8L1034.07 375.538Z" fill="#E5D45E"/>
<path d="M1062.47 422.471C1061.93 423.404 1061.8 424.471 1062.2 424.871C1063.4 426.071 1064.73 424.337 1064.07 422.471L1063.53 420.737L1062.47 422.471Z" fill="#E5D45E"/>
<path d="M1003.67 464.737C1004.87 465.937 1006.2 466.471 1006.73 466.071C1007.13 465.537 1006.73 464.604 1005.67 463.937C1002.47 461.937 1001.27 462.471 1003.67 464.737Z" fill="#E5D45E"/>
<path d="M1037.53 106.471C1033.53 108.604 1025.93 114.604 1020.6 119.804L1010.73 129.271H1008.33H1005.8L1003.93 132.871C1003 135.004 1000.87 138.738 999.4 141.271C992.2 153.938 985.8 166.604 983.667 172.071L981.4 178.204L983 183.804L984.467 189.271H988.467H992.6L991.8 184.471L990.867 179.804L993 172.338C994.2 168.204 996.6 162.871 998.2 160.338C999.933 157.804 1007 149.671 1014.07 142.204L1026.73 128.471L1036.33 123.538L1045.93 118.604H1051.8C1055 118.604 1058.87 117.938 1060.2 117.138L1062.6 115.538L1068.87 117.938C1072.2 119.271 1077.8 122.738 1081 125.538L1087 130.871V128.871C1087 127.271 1083.8 122.471 1077.93 115.271C1077.4 114.471 1075.8 112.071 1074.33 109.671C1073 107.404 1071.27 105.804 1070.33 106.071C1069.53 106.471 1065 105.804 1060.2 104.604C1055.53 103.538 1050.07 102.604 1048.2 102.604C1046.33 102.604 1041.53 104.338 1037.53 106.471Z" fill="#E4D13D"/>
<path d="M1001.13 213.538C1000.73 214.471 1000.2 216.871 999.8 218.871L999 222.471L1001.8 223.271L1004.73 224.204L1003 225.271L1001.4 226.338H1006.47C1009.4 226.471 1013.8 227.138 1016.33 227.938C1018.87 228.604 1022.33 229.271 1024.07 229.271H1027.13L1026.33 227.938C1025.93 227.138 1021.4 223.271 1016.33 219.271C1007.4 212.204 1002.07 210.204 1001.13 213.538Z" fill="#E4D13D"/>
<path d="M1136.33 216.737C1136.33 217.137 1137 218.737 1137.93 220.337C1140.6 225.537 1141.4 231.537 1140.07 238.737C1138.33 247.937 1133.4 257.537 1128.87 260.604L1125.27 263.004L1122.73 261.404L1120.33 259.938V263.137C1120.33 264.871 1121.13 267.004 1122.2 267.804C1123.13 268.604 1124.47 271.271 1125 273.671L1126.07 277.938L1126.6 275.537C1126.87 274.337 1127.8 273.271 1128.47 273.271C1129.13 273.271 1132.07 271.004 1135.13 268.337C1140.6 263.404 1145.8 254.604 1147.53 247.404L1148.47 243.671L1150.47 246.071L1152.47 248.604L1150.6 244.604C1146.2 235.271 1144.33 230.871 1141.67 223.537C1140.07 219.404 1138.2 215.937 1137.53 215.937C1136.87 215.937 1136.33 216.337 1136.33 216.737Z" fill="#E4D13D"/>
<path d="M1092.87 262.071L1093.67 264.204L1091.4 263.271C1090.07 262.871 1087.4 262.071 1085.53 261.671L1082.07 261.004L1081.27 264.738C1080.87 266.738 1081.13 269.671 1081.67 271.138C1082.33 272.738 1082.87 273.138 1082.87 272.204L1083 270.471L1087 272.604C1089.13 273.671 1092.2 274.604 1093.8 274.604C1095.4 274.604 1097.8 275.538 1099 276.604L1101.27 278.738L1099.53 272.071C1097.53 264.204 1095.4 259.938 1093.53 259.938H1092.07L1092.87 262.071Z" fill="#E4D13D"/>
<path d="M1011.53 347.538C1010.73 354.738 1011.53 358.071 1013.53 354.738L1014.6 353.138L1019.8 354.071C1026.33 355.138 1029.93 357.004 1029 358.738C1028.47 359.404 1029.13 359.938 1030.33 359.938C1031.4 359.938 1033 358.471 1033.67 356.604C1034.33 354.738 1035.53 353.271 1036.33 353.271C1038.07 353.271 1038.07 358.204 1036.33 359.271C1035.67 359.671 1035 361.138 1035 362.338V364.471L1036.47 363.004L1038.07 361.404L1044.2 365.671C1047.53 367.938 1055.27 374.604 1061.4 380.471L1072.47 391.138L1071.93 393.538C1071 396.871 1073 396.471 1077 392.471L1080.47 389.004L1082.73 389.671C1086.33 390.604 1066.33 370.071 1053.67 359.804C1040.87 349.404 1034.33 345.938 1021.4 342.604L1012.47 340.204L1011.53 347.538Z" fill="#E4D13D"/>
<path d="M972.867 364.204C950.467 387.004 943.533 396.871 940.2 409.804L938.733 415.938L939.667 424.471L940.467 433.138L944.067 436.738C946.067 438.738 946.867 439.938 945.8 439.271L943.933 438.204L944.867 439.671C945.4 440.471 946.6 440.871 947.533 440.471C948.6 440.071 949.8 440.471 950.467 441.404L951.4 443.004L949.933 442.071C949 441.538 948.333 441.404 948.333 441.804C948.333 442.204 949.667 443.138 951.133 444.071L953.933 445.538L953 443.938L952.067 442.471L954.733 444.071C956.333 445.004 957.133 446.338 956.733 447.138L955.933 448.338L957.4 447.404C958.2 447.004 959.667 447.404 960.733 448.471C961.8 449.538 963 450.071 963.533 449.671C963.933 449.138 964.333 449.671 964.333 450.604C964.333 451.538 964.733 451.938 965.267 451.538C965.667 451.004 967 451.404 968.067 452.204C969.133 453.138 970.867 453.938 972.2 454.071L974.333 454.338L971.667 452.871C967.133 450.204 958.2 439.938 955.267 434.204C953.8 431.138 952.067 425.538 951.667 421.938L950.733 415.271L953.533 407.938C955 403.938 958.733 397.538 961.8 393.938C970.867 382.871 991.133 362.604 993.133 362.604C995.933 362.604 995.4 360.204 992.333 358.604C990.867 357.804 989.267 355.671 988.867 353.938C988.467 352.071 987.667 350.604 987.133 350.604C986.6 350.604 980.2 356.738 972.867 364.204Z" fill="#E4D13D"/>
<path d="M1052.47 116.871L1049.27 117.537L1054.47 119.804C1057.27 121.137 1059.8 122.071 1060.07 121.804C1060.87 121.271 1057.67 115.937 1056.6 116.071C1056.07 116.204 1054.2 116.604 1052.47 116.871Z" fill="#DDB650"/>
<path d="M1084.2 125.537C1084.87 127.271 1091.4 138.471 1098.87 150.471C1106.2 162.471 1112.33 172.471 1112.33 172.737C1112.33 173.004 1114.6 177.004 1117.4 181.537C1121.8 188.737 1134.07 211.271 1140.07 222.871C1141 225.004 1142.2 226.604 1142.47 226.604C1142.87 226.604 1142.73 225.937 1142.33 225.271C1141.53 223.937 1139.13 212.337 1138.6 207.671C1138.47 206.471 1137.8 205.804 1137.13 206.204L1135.93 207.004L1136.73 204.737L1137.67 202.471L1136.47 203.137C1135.8 203.537 1134.87 203.004 1134.47 201.804L1133.67 199.804L1135.4 200.604C1136.2 201.137 1135.8 200.471 1134.47 199.404C1133 198.204 1132.2 197.271 1132.73 197.271C1133.27 197.271 1132.47 196.071 1130.87 194.471C1129.4 193.004 1128.47 190.871 1128.87 189.937C1129.27 188.871 1128.87 187.671 1128.07 187.137L1126.6 186.204L1127.67 187.937L1128.73 189.671L1127.13 188.604C1126.2 188.071 1125.67 186.604 1126.07 185.271L1126.73 182.871L1124.07 182.071L1121.27 181.404L1122.07 178.737L1122.73 175.937H1121C1119.93 175.937 1118.73 175.271 1118.2 174.337L1117.27 172.871L1119.13 173.804L1121 174.737L1118.87 173.004C1117.67 172.071 1117 170.604 1117.27 169.671C1117.53 168.871 1116.33 167.137 1114.47 165.937C1112.73 164.737 1110.87 162.871 1110.47 161.804L1109.67 159.804L1111.4 160.737L1113 161.804L1111.4 159.671C1110.47 158.604 1110.2 157.137 1110.73 156.604L1111.67 155.537L1109.4 156.337L1107.27 157.137L1106.47 155.137L1105.67 153.137L1107.4 153.937C1108.2 154.471 1107.67 153.671 1106.07 152.337C1104.47 151.004 1103 149.004 1102.73 147.937C1102.47 146.871 1101.67 145.404 1100.73 144.604C1099.8 143.937 1099 142.337 1098.73 141.271C1098.47 140.204 1097.27 138.471 1095.93 137.404L1093.53 135.671L1094.2 133.804L1094.87 131.937H1092.87H1090.73L1091.53 129.804L1092.33 127.804L1090.73 128.737L1089.27 129.671L1090.2 127.137C1090.73 125.804 1090.73 125.137 1090.2 125.671C1089.67 126.204 1087.8 125.671 1086.2 124.604L1083 122.604L1084.2 125.537ZM1115.67 167.937C1116.07 168.604 1116.2 169.271 1115.8 169.271C1115.4 169.271 1114.73 168.604 1114.33 167.937C1113.93 167.137 1113.8 166.604 1114.2 166.604C1114.6 166.604 1115.27 167.137 1115.67 167.937Z" fill="#DDB650"/>
<path d="M985.267 192.204C985.667 194.604 987.8 198.737 989.933 201.271C991.933 203.804 993.667 206.471 993.667 207.271C993.667 208.071 995.4 210.337 997.4 212.337L1001.13 215.938L1002.47 214.737C1003.13 214.071 1004.73 213.271 1006.07 213.004L1008.47 212.604L1005 205.804C1003.13 202.071 999.533 196.604 996.867 193.537L992.067 187.937H988.2H984.467L985.267 192.204Z" fill="#DDB650"/>
<path d="M1014.87 228.471C1015.93 229.671 1021.93 234.071 1028.2 238.204C1034.47 242.204 1041.13 246.604 1043 247.937C1044.87 249.137 1049 251.671 1052.33 253.537C1055.67 255.404 1063.4 259.804 1069.4 263.271L1080.6 269.537L1081.67 268.471C1083.27 266.737 1083.67 262.337 1082.6 259.137L1081.53 256.204L1073.4 252.471C1058.47 245.404 1049.13 240.604 1038.33 234.337L1027.67 228.204L1020.33 227.271L1013 226.337L1014.87 228.471Z" fill="#DDB650"/>
<path d="M1108.47 234.204C1108.33 238.337 1102.73 242.204 1094.2 244.071L1086.87 245.671L1087.67 249.137C1088.2 251.004 1090.6 256.337 1093.13 260.871L1097.67 269.004L1107.27 268.337C1112.6 268.071 1118.2 267.671 1119.8 267.537L1122.6 267.271L1121.53 262.471C1120.33 257.137 1113.67 241.004 1112.2 239.937C1111.8 239.537 1110.73 237.404 1109.93 235.271L1108.6 231.271L1108.47 234.204Z" fill="#DDB650"/>
<path d="M1005 353.404C1001.4 354.604 996.733 356.471 994.6 357.671L991 359.537L992.6 361.004C993.533 361.671 998.2 363.404 1003 364.604C1007.8 365.937 1013.53 368.071 1015.8 369.404C1018.07 370.871 1021.13 371.937 1022.47 371.937C1023.93 371.937 1027.13 372.737 1029.93 373.671L1034.73 375.404L1045.27 386.071L1055.67 396.871L1059.67 397.804C1061.93 398.337 1065.27 399.404 1067.4 400.204L1071 401.537V405.137C1071 408.471 1068.6 413.137 1064.87 416.871C1062.87 418.871 1059.93 433.004 1060.6 437.937L1061 441.804L1068.73 447.671L1076.33 453.404V455.937C1076.33 457.404 1075.13 459.137 1073.53 459.937C1072.07 460.871 1071.13 461.804 1071.53 462.204C1071.93 462.737 1073.53 461.937 1075 460.604C1076.47 459.271 1077.67 458.604 1077.67 459.271C1077.67 459.804 1078.6 459.537 1079.67 458.604L1081.53 457.004L1083.13 458.071L1084.73 459.004L1083.8 457.537L1082.87 455.937L1084.6 455.804C1085.53 455.671 1087.13 455.671 1088.07 455.804C1088.87 455.937 1089.67 455.404 1089.67 454.737V453.404L1092.07 454.204L1094.33 455.004L1093.4 453.937C1092.87 453.404 1093 452.071 1093.8 451.137L1095.27 449.271L1093.13 439.004C1091.8 433.271 1090.33 427.404 1089.67 425.937C1085.67 416.204 1083.4 411.804 1079.27 405.271C1076.6 401.271 1074.6 396.871 1074.6 395.671L1074.87 393.404L1069.4 395.537L1063.93 397.671L1059.4 395.271C1056.87 393.804 1053.67 391.271 1052.2 389.537L1049.67 386.204V379.804V373.404L1048.07 372.337C1047.13 371.804 1043.93 370.604 1041 369.937L1035.67 368.604L1035.8 365.937C1035.93 364.471 1036.47 362.071 1037 360.737L1038.07 358.204L1036.6 359.137L1035 360.071L1034.2 358.071L1033.4 355.937L1029.67 358.604C1025.53 361.537 1019.4 362.071 1016.2 359.537C1015 358.604 1013.53 356.471 1012.87 354.604L1011.67 351.271L1005 353.404Z" fill="#DDB650"/>
<path d="M967.4 452.338C967.4 453.404 968.2 454.204 969.267 454.204H971L969.533 452.338C968.733 451.404 967.933 450.604 967.667 450.604C967.533 450.604 967.4 451.404 967.4 452.338Z" fill="#DDB650"/>
<path d="M972.333 454.604C972.333 455.538 972.733 455.938 973.267 455.538C973.667 455.004 973.667 454.204 973.267 453.671C972.733 453.271 972.333 453.671 972.333 454.604Z" fill="#DDB650"/>
<path d="M975 456.471C975 457.671 975.667 458.604 976.333 458.604C977.133 458.604 977.667 458.071 977.667 457.404C977.667 456.604 977.133 455.671 976.333 455.271L975 454.471V456.471Z" fill="#DDB650"/>
<path d="M981.667 458.604C981.667 459.538 982.067 459.938 982.6 459.538C983 459.004 983 458.204 982.6 457.671C982.067 457.271 981.667 457.671 981.667 458.604Z" fill="#DDB650"/>
<path d="M985.133 459.804C984.733 460.471 985.267 461.404 986.467 461.804C989.133 462.871 990.333 461.937 989 460.071C987.933 458.337 986.067 458.204 985.133 459.804Z" fill="#DDB650"/>
<path d="M993.667 462.604C993.667 463.538 994.067 463.938 994.6 463.538C995 463.004 995 462.204 994.6 461.671C994.067 461.271 993.667 461.671 993.667 462.604Z" fill="#DDB650"/>
<path d="M1065.13 462.337C1064.73 463.004 1065.27 463.537 1066.33 463.537C1067.4 463.537 1067.93 463.004 1067.53 462.337C1067.13 461.804 1066.6 461.271 1066.33 461.271C1066.07 461.271 1065.53 461.804 1065.13 462.337Z" fill="#DDB650"/>
<path d="M998.467 463.804C997.933 464.471 998.6 464.871 999.667 464.738C1002.47 464.338 1003.8 462.604 1001.27 462.604C1000.07 462.604 998.867 463.138 998.467 463.804Z" fill="#DDB650"/>
<path d="M1060.33 463.937C1060.33 464.871 1060.73 465.271 1061.27 464.871C1061.67 464.337 1061.67 463.537 1061.27 463.004C1060.73 462.604 1060.33 463.004 1060.33 463.937Z" fill="#DDB650"/>
<path d="M1003.67 465.271L1002.87 466.604H1005H1007.13L1006.33 465.271C1005.93 464.471 1005.27 463.937 1005 463.937C1004.73 463.937 1004.07 464.471 1003.67 465.271Z" fill="#DDB650"/>
<path d="M1055.67 465.271L1054.87 466.604H1057H1059.13L1058.33 465.271C1057.93 464.471 1057.27 463.937 1057 463.937C1056.73 463.937 1056.07 464.471 1055.67 465.271Z" fill="#DDB650"/>
<path d="M1013 466.604C1013.4 467.271 1014.73 467.938 1015.8 467.938C1016.87 467.938 1017.4 467.271 1017 466.604C1016.6 465.804 1015.27 465.271 1014.2 465.271C1013.13 465.271 1012.6 465.804 1013 466.604Z" fill="#DDB650"/>
</svg>
